<svg id="Layer_1" enable-background="new 0 0 512 512" height="512" viewBox="0 0 512 512" width="512" xmlns="http://www.w3.org/2000/svg"><g><g><path d="m430.68 113.949h-76.062v243.464h76.062zm-15 228.465h-46.062v-213.465h46.062z"/><path d="m183.518 209.737c-14.306 0-25.944 11.638-25.944 25.944s11.638 25.944 25.944 25.944 25.944-11.639 25.944-25.944-11.639-25.944-25.944-25.944zm0 36.888c-6.035 0-10.944-4.91-10.944-10.944s4.909-10.944 10.944-10.944 10.944 4.909 10.944 10.944-4.91 10.944-10.944 10.944z"/><path d="m97.585 235.681c0 47.383 38.549 85.932 85.932 85.932s85.933-38.549 85.933-85.932-38.549-85.932-85.933-85.932-85.932 38.549-85.932 85.932zm129.791-33.252 11.29-11.29c8.379 10.354 13.912 23.099 15.384 37.042h-16.008v15h16.008c-1.472 13.943-7.005 26.688-15.384 37.042l-11.29-11.29-10.606 10.607 11.29 11.29c-10.354 8.379-23.099 13.912-37.042 15.384v-16.007h-15v16.007c-13.943-1.472-26.688-7.005-37.042-15.384l11.29-11.29-10.606-10.606-11.29 11.29c-8.379-10.354-13.912-23.099-15.384-37.042h16.008v-15h-16.008c1.472-13.943 7.005-26.688 15.384-37.042l11.29 11.29 10.606-10.606-11.29-11.29c10.354-8.379 23.099-13.912 37.042-15.384v16.007h15v-16.007c13.943 1.472 26.688 7.005 37.042 15.384l-11.29 11.29z"/><path d="m512 29.73h-403v15h388v381.9h-482v-381.9h79v-15h-94v411.9h37.5v40.639h89.279v-40.639h258.442v40.639h89.279v-40.639h37.5zm-400.221 437.54h-59.279v-25.639h59.279zm347.721 0h-59.279v-25.639h59.279z"/><path d="m474.54 72.541h-425.18v38.152h-14.527v92.666h14.527v64.646h-14.527v92.666h14.527v38.15h366.32v-15h-351.32v-23.15h15.81v-92.671h-15.81v-64.64h15.81v-92.67h-15.81v-23.15h395.18v296.28h-28.86v15h43.86zm-424.707 53.151h15.333v62.666h-15.333zm0 157.312h15.333v62.666h-15.333z"/></g><g><path d="m400.149 286.173h-15v-15h15zm0-45h-15v-15h15zm0-45h-15v-15h15z"/></g></g></svg>